<svg width="436" height="389" viewBox="0 0 436 389" fill="none" xmlns="http://www.w3.org/2000/svg">
<path d="M398.6 27.8L323.6 31.5L103.6 42.4L18 46.6C7.29997 47.1 -0.800029 56.6 0.499971 67.3L21.2 246.9C22.4 256.9 31.2 264.1 41.2 263.3L123.2 256.2L323.7 238.9L402.1 232.1C411.7 231.3 419.1 223.2 419.1 213.5L418 46.3C418 35.7 409.1 27.3 398.6 27.8Z" fill="#85CD2E"/>
<path d="M416.5 27.7L341.4 27.5L121.2 27L35.5 26.8C24.8 26.8 16.3 35.8 16.9 46.5L28.5 227C29.1 237 37.6 244.7 47.7 244.4L130 241.5L331.1 234.5L409.7 231.7C419.4 231.4 427.2 223.7 427.6 214L435.1 47C435.5 36.5 427.1 27.7 416.5 27.7Z" fill="#F3C734"/>
<path d="M402.6 0.0999881L327.6 3.29998L326.5 210.6L404.9 204.3C414.5 203.5 422 195.5 422 185.8V18.7C422 8.09998 413.2 -0.300012 402.6 0.0999881Z" fill="#FF4B58"/>
<path d="M107.6 12.8L125.9 226.7L326.5 210.7L327.6 3.39999L107.6 12.8Z" fill="#46194D"/>
<path d="M21.9 16.5C11.2 17 3.09995 26.4 4.19995 37.1L23.9 216.9C25 226.9 33.8 234.2 43.8 233.4L125.9 226.8L107.5 12.9L21.9 16.5Z" fill="#06D2FF"/>
<path d="M84.0602 83.8546C86.9666 71.5462 79.3447 59.2123 67.0364 56.3059C54.728 53.3995 42.394 61.0214 39.4876 73.3298C36.5813 85.6381 44.2032 97.9721 56.5115 100.878C68.8199 103.785 81.1539 96.163 84.0602 83.8546Z" fill="#46194D"/>
<path d="M396.817 145.051C398.843 132.567 390.365 120.804 377.881 118.778C365.397 116.752 353.634 125.23 351.608 137.714C349.582 150.198 358.06 161.961 370.544 163.987C383.028 166.013 394.791 157.535 396.817 145.051Z" fill="#46194D"/>
<path d="M382.181 31.5172L366.985 31.8803L367.401 49.2751L382.596 48.912L382.181 31.5172Z" fill="#46194D"/>
<path d="M361.205 54.7996L344.71 55.1938L345.073 70.3892L361.568 69.995L361.205 54.7996Z" fill="#46194D"/>
<path d="M383.18 75.0176L367.985 75.3807L368.4 92.7755L383.596 92.4124L383.18 75.0176Z" fill="#46194D"/>
<path d="M405.605 53.7788L387.311 54.216L387.674 69.4115L405.968 68.9742L405.605 53.7788Z" fill="#46194D"/>
<path d="M79.4505 132.391L64.2566 132.827L64.7563 150.22L79.9502 149.784L79.4505 132.391Z" fill="#46194D"/>
<path d="M58.5815 155.87L42.0881 156.344L42.5246 171.538L59.018 171.064L58.5815 155.87Z" fill="#46194D"/>
<path d="M80.7526 175.99L65.5587 176.426L66.0584 193.819L81.2524 193.383L80.7526 175.99Z" fill="#46194D"/>
<path d="M102.983 154.645L84.6906 155.171L85.1271 170.365L103.42 169.839L102.983 154.645Z" fill="#46194D"/>
<path d="M203.029 351.083H213.566L210.139 370.57V370.887C210.139 371.607 210.393 372.241 210.9 372.792C211.408 373.342 212.022 373.617 212.741 373.617H218.581C219.512 373.617 220.358 373.321 221.12 372.728C221.924 372.093 222.411 371.332 222.58 370.443L224.865 357.621C224.95 357.24 224.992 356.838 224.992 356.415C224.992 354.722 224.23 352.521 222.707 349.813C222.072 348.671 220.274 345.327 217.312 339.784C214.011 333.563 212.106 329.966 211.599 328.993C209.991 325.819 209.187 322.709 209.187 319.662C209.187 319.492 209.187 319.302 209.187 319.09C209.187 318.371 209.25 317.63 209.377 316.869L212.106 301.127C212.53 298.757 213.715 296.789 215.661 295.223C217.523 293.658 219.66 292.875 222.072 292.875H237.307C239.507 292.875 241.411 293.679 243.02 295.287C244.67 296.895 245.495 298.884 245.495 301.254C245.495 301.804 245.453 302.248 245.368 302.587L241.369 324.93H230.705L234.069 306.141C234.154 306.014 234.196 305.845 234.196 305.633C234.196 304.999 233.921 304.406 233.371 303.856C232.821 303.391 232.186 303.158 231.467 303.158H225.627C224.696 303.158 223.871 303.454 223.151 304.047C222.432 304.597 221.988 305.295 221.818 306.141L219.978 316.234C219.851 316.996 219.787 317.779 219.787 318.583C219.787 321.545 220.76 324.613 222.707 327.787C229.943 339.593 233.731 346.28 234.069 347.845C235.17 349.877 235.72 352.098 235.72 354.51C235.677 355.611 235.55 356.774 235.339 358.002L232.102 375.585C231.678 377.954 230.515 379.943 228.61 381.551C226.706 383.117 224.527 383.9 222.072 383.9H206.901C204.659 383.9 202.775 383.096 201.252 381.488C199.771 379.88 199.03 377.912 199.03 375.585V374.125L203.029 351.083ZM243.781 383.9L258.508 303.158H250.7L252.541 292.875H279.011L277.043 303.158H269.489L254.89 383.9H243.781ZM268.093 383.9L284.406 292.875H308.845C311.045 292.875 312.95 293.679 314.558 295.287C316.166 296.852 317.012 298.778 317.097 301.063C317.054 301.275 316.97 301.783 316.843 302.587L311.765 331.278C311.045 335.256 308.697 337.795 304.719 338.895C306.2 339.445 307.321 340.419 308.083 341.815C308.675 342.915 308.972 344.143 308.972 345.497C308.972 345.793 308.951 346.11 308.908 346.449C308.908 347.084 308.887 347.57 308.845 347.909L302.243 383.9H291.071L297.736 346.639V346.322C297.736 345.602 297.482 344.989 296.975 344.481C296.467 343.973 295.853 343.719 295.134 343.719H286.311L279.201 383.9H268.093ZM288.278 332.865H297.102C298.033 332.865 298.858 332.547 299.577 331.913C300.254 331.32 300.677 330.58 300.847 329.691L305.163 306.141V305.76C305.163 304.999 304.909 304.364 304.401 303.856C303.851 303.391 303.195 303.158 302.434 303.158H293.674L288.278 332.865ZM326.301 292.875H350.993L349.216 303.031H335.505L330.363 331.913H344.011L342.106 342.069H328.522L322.873 373.744H336.33L334.489 383.9H309.797L326.301 292.875ZM358.674 292.875H383.366L381.589 303.031H367.878L362.736 331.913H376.384L374.479 342.069H360.896L355.246 373.744H368.703L366.862 383.9H342.17L358.674 292.875ZM380.256 383.9L394.982 303.158H387.175L389.016 292.875H415.485L413.518 303.158H405.964L391.364 383.9H380.256Z" fill="#06D2FF"/>
<path d="M17.0303 373.998L30.1064 301.127C30.5296 298.757 31.6934 296.789 33.5977 295.223C35.502 293.658 37.639 292.875 40.0088 292.875H55.4336C57.6341 292.875 59.5173 293.679 61.083 295.287C62.6911 296.895 63.4951 298.863 63.4951 301.19C63.4951 301.783 63.4528 302.248 63.3682 302.587L59.3057 325.248H48.7686L52.1963 306.141V305.76C52.1963 304.999 51.9424 304.364 51.4346 303.856C50.9268 303.391 50.292 303.158 49.5303 303.158H43.627C42.7383 303.158 41.9131 303.454 41.1514 304.047C40.432 304.597 39.9876 305.295 39.8184 306.141L28.2021 370.57V370.887C28.2021 371.607 28.4561 372.241 28.9639 372.792C29.4717 373.342 30.1064 373.617 30.8682 373.617H36.708C38.9085 373.617 40.1992 372.559 40.5801 370.443L45.7852 342.64H39.7549L41.5957 332.484H58.1631L50.292 375.585C49.8688 377.954 48.6839 379.943 46.7373 381.551C44.833 383.117 42.6748 383.9 40.2627 383.9H25.0918C22.849 383.9 20.9447 383.096 19.3789 381.488C17.8132 379.838 17.0303 377.87 17.0303 375.585V373.998ZM53.9736 383.9L83.998 292.875H94.916L92.0596 383.9H81.7129L82.4746 368.92H70.0332L65.5898 383.9H53.9736ZM82.9824 358.636L85.0137 318.329L73.0801 358.636H82.9824ZM114.022 292.875H127.099L126.4 358.446L148.363 292.875H163.471L146.967 383.9H135.985L146.078 327.089L126.908 383.9H117.641L118.339 326.39L108.437 383.9H97.4551L114.022 292.875ZM171.088 292.875H195.78L194.003 303.031H180.292L175.15 331.913H188.798L186.894 342.069H173.31L167.66 373.744H181.117L179.276 383.9H154.584L171.088 292.875Z" fill="#F3C734"/>
</svg>
