<svg xmlns="http://www.w3.org/2000/svg" xmlns:xlink="http://www.w3.org/1999/xlink" version="1.1" x="0px" y="0px" viewBox="0 0 60 75" style="enable-background:new 0 0 60 60;" xml:space="preserve"><path d="M47.097168,28.1948853v-5.1050415l-4.6791992-1.1035156c-0.3432617-1.1953125-0.8198242-2.3457031-1.4223633-3.4326172  l2.5283203-4.0898438l-4.890625-4.890625l-4.090332,2.5283203c-1.0869141-0.6025391-2.2373047-1.0791016-3.4326172-1.421875  L30.0068359,6h-6.9169922l-1.1035156,4.6796875c-1.1958008,0.3427734-2.3457031,0.8193359-3.4326172,1.421875l-4.0893555-2.5283203  l-4.8916016,4.890625l2.5288086,4.0898438c-0.6020508,1.0859375-1.0791016,2.2363281-1.4223633,3.4326172L6,23.0898438v6.9179688  l4.6791992,1.1025391c0.3432617,1.1962891,0.8198242,2.3466797,1.4223633,3.4335938l-2.5283203,4.0888672l4.890625,4.8916016  l4.090332-2.5292969c1.0874023,0.6035156,2.2373047,1.0800781,3.4321289,1.4228516l1.1035156,4.6796875h5.1054688  C30.5966797,51.2176514,35.052063,54,40.1547852,54C47.7890625,54,54,47.7890625,54,40.1542969  C54,35.0516357,51.2174072,30.5960693,47.097168,28.1948853z M24.6728516,45.0976563l-1.0175781-4.3154297l-0.5932617-0.1464844  c-1.4130859-0.3486328-2.7612305-0.9072266-4.0073242-1.6611328L18.53125,38.6582031l-3.7724609,2.3330078l-2.6523438-2.6533203  l2.3330078-3.7714844l-0.3164063-0.5234375c-0.753418-1.2451172-1.3120117-2.59375-1.6616211-4.0087891l-0.1464844-0.5927734  L8,28.4238281v-3.75l4.3149414-1.0185547L12.4614258,23.0625c0.3500977-1.4160156,0.9086914-2.7646484,1.6611328-4.0078125  l0.3168945-0.5234375l-2.3325195-3.7724609l2.6523438-2.6523438l3.7719727,2.3320313l0.5234375-0.3164063  c1.2446289-0.7519531,2.5927734-1.3105469,4.0073242-1.6601563l0.5932617-0.1464844L24.6728516,8h3.7509766l1.0175781,4.3154297  l0.59375,0.1464844c1.4135742,0.3486328,2.762207,0.9072266,4.0073242,1.6601563l0.5234375,0.3164063l3.7724609-2.3320313  l2.6523438,2.6523438L38.6577148,18.53125l0.3168945,0.5234375c0.7529297,1.2451172,1.3115234,2.59375,1.6606445,4.0068359  l0.1464844,0.59375l4.3154297,1.0185547v2.5634766c-1.5375366-0.5904541-3.199585-0.9277344-4.9423828-0.9277344  c-1.1895142,0-2.3380737,0.166748-3.4403687,0.4501953c0.0014648-0.0704346,0.0092163-0.1404419,0.0092163-0.2109375  c0-5.6103516-4.5644531-10.1748047-10.175293-10.1748047c-5.6103516,0-10.1748047,4.5644531-10.1748047,10.1748047  s4.5644531,10.1748047,10.1748047,10.1748047c0.0704956,0,0.1407471-0.0072632,0.2112427-0.008728  c-0.2833252,1.1019897-0.4500122,2.2502441-0.4500122,3.4393921c0,1.7432251,0.3374634,3.4055786,0.9280396,4.9433594H24.6728516z   M27.4485474,34.668457c-0.2983398,0.0325928-0.5986328,0.0551758-0.9002075,0.0551758  c-4.5078125,0-8.1748047-3.6669922-8.1748047-8.1748047s3.6669922-8.1748047,8.1748047-8.1748047  s8.175293,3.6669922,8.175293,8.1748047c0,0.3016357-0.0223389,0.6015625-0.0551147,0.8997803  C31.4403687,28.8479614,28.8478394,31.4403687,27.4485474,34.668457z M40.1547852,52  c-6.53125,0-11.8452148-5.3134766-11.8452148-11.8457031c0-6.53125,5.3139648-11.8447266,11.8452148-11.8447266  S52,33.6230469,52,40.1542969C52,46.6865234,46.6860352,52,40.1547852,52z"/><path d="M36.0576172,33.953125c-3.2871094,0-6.0966797,2.4580078-6.3959961,5.5957031  c-0.1665039,1.7460938,0.4106445,3.4873047,1.5830078,4.7773438c1.8095703,1.9902344,4.8798828,2.5820313,7.2939453,1.4101563  c1.0424805-0.5058594,2.2011719-0.5302734,3.0986328-0.0673828c0.8857422,0.4570313,1.8461914,0.6884766,2.8310547,0.6884766  c0.4560547,0,0.9174805-0.0498047,1.3793945-0.1494141c2.3178711-0.5019531,4.2021484-2.3984375,4.6889648-4.7216797  c0.3925781-1.8710938-0.0615234-3.7802734-1.2456055-5.2382813c-1.184082-1.4589844-2.9394531-2.2949219-4.815918-2.2949219  H36.0576172z M48.5795898,41.0761719c-0.328125,1.5625-1.5957031,2.8398438-3.1547852,3.1767578  c-1.0014648,0.2167969-1.9926758,0.0917969-2.8701172-0.3613281c-0.7133789-0.3681641-1.515625-0.5517578-2.3378906-0.5517578  c-0.8554688,0-1.7329102,0.1992188-2.5512695,0.5976563c-1.6318359,0.7910156-3.7143555,0.3916016-4.940918-0.9570313  c-0.8061523-0.8867188-1.1865234-2.0380859-1.0717773-3.2421875c0.2021484-2.1220703,2.137207-3.7851563,4.4047852-3.7851563  h8.4174805c1.2709961,0,2.4604492,0.5664063,3.2631836,1.5556641  C48.5527344,38.5117188,48.8515625,39.7783203,48.5795898,41.0761719z"/><polygon points="36.8984375,37.5263672 34.8984375,37.5263672 34.8984375,38.8535156 33.5717773,38.8535156 33.5717773,40.8535156   34.8984375,40.8535156 34.8984375,42.1806641 36.8984375,42.1806641 36.8984375,40.8535156 38.2255859,40.8535156   38.2255859,38.8535156 36.8984375,38.8535156 "/><rect x="41.3964844" y="37.5263672" width="2.0551758" height="2"/><rect x="44.3964844" y="40.1806641" width="2.0551758" height="2"/><text x="0" y="75" fill="#000000" font-size="5px" font-weight="bold" font-family="'Helvetica Neue', Helvetica, Arial-Unicode, Arial, Sans-serif">Created by Vectorstall</text><text x="0" y="80" fill="#000000" font-size="5px" font-weight="bold" font-family="'Helvetica Neue', Helvetica, Arial-Unicode, Arial, Sans-serif">from the Noun Project</text></svg>