<svg xmlns="http://www.w3.org/2000/svg" viewBox="0 0 32 40" x="0px" y="0px"><g data-name="bag" fill="#fff"><path d="M19,6.75H3a.75.75,0,0,1,0-1.5H19a.75.75,0,0,1,0,1.5Z"/><path d="M29,16.75H13a.75.75,0,0,1,0-1.5H29a.75.75,0,0,1,0,1.5Z"/><path d="M29,26.75H19a.75.75,0,0,1,0-1.5H29a.75.75,0,0,1,0,1.5Z"/><path d="M13,26.75H3a.75.75,0,0,1,0-1.5H13a.75.75,0,0,1,0,1.5Z"/><path d="M22,9.75A3.75,3.75,0,1,1,25.75,6,3.75,3.75,0,0,1,22,9.75Zm0-6A2.25,2.25,0,1,0,24.25,6,2.25,2.25,0,0,0,22,3.75Z"/><path d="M10,19.75A3.75,3.75,0,1,1,13.75,16,3.75,3.75,0,0,1,10,19.75Zm0-6A2.25,2.25,0,1,0,12.25,16,2.25,2.25,0,0,0,10,13.75Z"/><path d="M16,29.75A3.75,3.75,0,1,1,19.75,26,3.75,3.75,0,0,1,16,29.75Zm0-6A2.25,2.25,0,1,0,18.25,26,2.25,2.25,0,0,0,16,23.75Z"/><path d="M29,6.75H25a.75.75,0,0,1,0-1.5h4a.75.75,0,0,1,0,1.5Z"/><path d="M7,16.75H3a.75.75,0,0,1,0-1.5H7a.75.75,0,0,1,0,1.5Z"/></g></svg>