<svg xmlns="http://www.w3.org/2000/svg" xmlns:xlink="http://www.w3.org/1999/xlink" version="1.1" x="0px" y="0px" viewBox="0 0 64 80" style="enable-background:new 0 0 64 64;" xml:space="preserve"><g><path d="M51,45c-1.654,0-3,1.346-3,3s1.346,3,3,3c1.654,0,3-1.346,3-3S52.654,45,51,45z M51,49c-0.552,0-1-0.449-1-1s0.448-1,1-1   c0.552,0,1,0.449,1,1S51.552,49,51,49z"/><path d="M13,45c-1.654,0-3,1.346-3,3s1.346,3,3,3c1.654,0,3-1.346,3-3S14.654,45,13,45z M13,49c-0.552,0-1-0.449-1-1s0.448-1,1-1   c0.552,0,1,0.449,1,1S13.552,49,13,49z"/><path d="M20,20h4c0.553,0,1-0.448,1-1s-0.447-1-1-1h-3v-3c0-0.552-0.447-1-1-1c-0.553,0-1,0.448-1,1v4C19,19.552,19.447,20,20,20z"/><path d="M61.419,36.419l-2.205-0.735c-0.787-0.262-1.843-1.177-2.214-1.92l-3.211-6.422C53.132,26.029,51.468,25,50,25H40v-7   c0-1.654-1.346-3-3-3h-7.841C27.612,11.473,24.092,9,20,9c-4.092,0-7.612,2.473-9.159,6H3c-1.654,0-3,1.346-3,3v30   c0,1.654,1.346,3,3,3h3.685c1.126,2.361,3.529,4,6.315,4c2.785,0,5.188-1.639,6.314-4h25.371c1.126,2.361,3.529,4,6.315,4   c2.785,0,5.188-1.639,6.314-4H61c1.654,0,3-1.346,3-3v-8C64,38.474,62.866,36.901,61.419,36.419z M55.41,35H46v-4h7.382   l1.829,3.658C55.268,34.772,55.339,34.886,55.41,35z M37,17c0.552,0,1,0.449,1,1v1h-8c0-0.685-0.07-1.354-0.201-2H37z M20,11   c4.411,0,8,3.589,8,8s-3.589,8-8,8c-4.411,0-8-3.589-8-8S15.589,11,20,11z M3,17h7.201C10.07,17.646,10,18.315,10,19H2v-1   C2,17.449,2.448,17,3,17z M13,53c-2.757,0-5-2.243-5-5s2.243-5,5-5c2.757,0,5,2.243,5,5S15.757,53,13,53z M13,41   c-3.859,0-7,3.14-7,7c0,0.34,0.033,0.672,0.08,1H3c-0.552,0-1-0.449-1-1V21h8.201c0.93,4.559,4.97,8,9.799,8   c4.829,0,8.869-3.441,9.799-8H38v28H19.92c0.048-0.328,0.08-0.66,0.08-1C20,44.14,16.859,41,13,41z M51,53c-2.757,0-5-2.243-5-5   s2.243-5,5-5c2.757,0,5,2.243,5,5S53.757,53,51,53z M61,49h-3.08c0.048-0.328,0.08-0.66,0.08-1c0-3.86-3.141-7-7-7   c-3.859,0-7,3.14-7,7c0,0.34,0.033,0.672,0.08,1H40V27h10c0.723,0,1.677,0.589,2,1.236L52.382,29H45c-0.553,0-1,0.448-1,1v6   c0,0.552,0.447,1,1,1h12c0.114,0,0.22-0.03,0.321-0.065c0.414,0.279,0.844,0.507,1.26,0.646l2.205,0.735   C61.422,38.528,62,39.331,62,40v2h-1c-0.553,0-1,0.448-1,1s0.447,1,1,1h1v4C62,48.551,61.552,49,61,49z"/></g><text x="0" y="79" fill="#000000" font-size="5px" font-weight="bold" font-family="'Helvetica Neue', Helvetica, Arial-Unicode, Arial, Sans-serif">Created by Berkah Icon</text><text x="0" y="84" fill="#000000" font-size="5px" font-weight="bold" font-family="'Helvetica Neue', Helvetica, Arial-Unicode, Arial, Sans-serif">from the Noun Project</text></svg>