<svg xmlns="http://www.w3.org/2000/svg" xmlns:xlink="http://www.w3.org/1999/xlink" viewBox="0 0 32 40" version="1.1" x="0px" y="0px"><title>Artboard Copy 24</title><desc>Created with Sketch.</desc><g stroke="none" stroke-width="1" fill="none" fill-rule="evenodd"><g fill="#fff"><rect x="1" y="6" width="18" height="2"/><path d="M27.1574497,19.0721873 L27.1574497,7.00755916 C27.1574497,6.44895371 26.7097344,6 26.1574497,6 C25.6013145,6 25.1574497,6.4510996 25.1574497,7.00755916 L25.1574497,19.0721873 L23.3310939,17.2458315 C22.9315446,16.8462822 22.3053333,16.8532359 21.914809,17.2437601 C21.521562,17.6370071 21.5252121,18.2683768 21.9168803,18.6600451 L25.4482715,22.1914363 C25.4486169,22.1917816 25.4489624,22.1921267 25.4493081,22.1924714 C25.4496525,22.1928168 25.4499975,22.1931623 25.4503429,22.1935076 C25.64662,22.3897847 25.9022183,22.4871869 26.1577247,22.486818 C26.4159887,22.4877955 26.6696317,22.3884323 26.8645564,22.1935076 C26.8649018,22.1931623 26.8652468,22.1928167 26.8655916,22.192471 C26.8659369,22.1921266 26.8662824,22.1917816 26.8666278,22.1914363 L30.398019,18.6600451 C30.7975683,18.2604958 30.7906146,17.6342844 30.4000903,17.2437601 C30.0068434,16.8505132 29.3754737,16.8541632 28.9838054,17.2458315 L27.1574497,19.0721873 Z M1,11.5857864 L17,11.5857864 L17,13.5857864 L1,13.5857864 L1,11.5857864 Z M1,17.5857864 L15,17.5857864 L15,19.5857864 L1,19.5857864 L1,17.5857864 Z M1,23.5857864 L11,23.5857864 L11,25.5857864 L1,25.5857864 L1,23.5857864 Z"/></g></g></svg>